<svg width="10" height="13" viewBox="0 0 10 13" fill="none" xmlns="http://www.w3.org/2000/svg">
<path d="M7.14286 10.6191V11.512C7.14286 11.8079 6.90301 12.0477 6.60714 12.0477H0.535714C0.239844 12.0477 0 11.8079 0 11.512V3.29771C0 3.00184 0.239844 2.762 0.535714 2.762H2.14286V9.36914C2.14286 10.0584 2.70359 10.6191 3.39286 10.6191H7.14286ZM7.14286 2.94057V0.619141H3.39286C3.09699 0.619141 2.85714 0.858984 2.85714 1.15485V9.36914C2.85714 9.66501 3.09699 9.90486 3.39286 9.90486H9.46429C9.76016 9.90486 10 9.66501 10 9.36914V3.47628H7.67857C7.38393 3.47628 7.14286 3.23521 7.14286 2.94057ZM9.8431 2.24796L8.37118 0.776038C8.27072 0.675579 8.13446 0.619141 7.99239 0.619141H7.85714V2.762H10V2.62675C10 2.48468 9.94356 2.34842 9.8431 2.24796Z" fill="#6B7280"/>
</svg>
