<svg width="20" height="25" viewBox="0 0 20 25" fill="none" xmlns="http://www.w3.org/2000/svg">
<path d="M14.2967 0L15.0779 0C15.7251 0 16.2498 0.524658 16.2498 1.17187L16.2498 18.75H18.5936C19.6369 18.75 20.1581 20.0146 19.4222 20.7505L15.516 24.6568C15.0583 25.1144 14.3163 25.1144 13.8587 24.6568L9.95244 20.7505C9.21944 20.0174 9.7334 18.75 10.7811 18.75H13.1248L13.1248 1.17187C13.1248 0.524658 13.6495 0 14.2967 0ZM6.87481 23.8281L6.87481 6.25L9.21856 6.25C10.2593 6.25 10.785 4.98721 10.0472 4.24946L6.14097 0.343213C5.6833 -0.114404 4.94131 -0.114404 4.4837 0.343213L0.577444 4.24946C-0.156296 4.98325 0.359329 6.25 1.40606 6.25L3.74981 6.25L3.74981 23.8281C3.74981 24.4753 4.27447 25 4.92168 25H5.70293C6.35015 25 6.87481 24.4753 6.87481 23.8281Z" fill="#111827"/>
</svg>
