<svg width="20" height="21" viewBox="0 0 20 21" fill="none" xmlns="http://www.w3.org/2000/svg">
<path d="M14.1384 13.1458L13.5591 13.8867L12.818 14.466C11.524 15.4775 9.89722 16.0785 8.12559 16.0785C3.91305 16.0785 0.5 12.6659 0.5 8.45428C0.5 4.24266 3.91305 0.830078 8.12559 0.830078C12.3381 0.830078 15.7512 4.24266 15.7512 8.45428C15.7512 10.2255 15.1502 11.852 14.1384 13.1458ZM13.626 13.9538H14.5323H15.1691C15.2883 13.9538 15.3989 14.0001 15.4797 14.0808L19.3726 17.973C19.3728 17.9733 19.3731 17.9736 19.3733 17.9738C19.5428 18.1459 19.5425 18.4238 19.3706 18.5958L18.265 19.7011L18.2631 19.703C18.0966 19.8714 17.8208 19.8741 17.6478 19.7011L13.7529 15.807C13.6722 15.7263 13.626 15.6157 13.626 15.4966V14.8599V13.9538ZM2.62523 8.45428C2.62523 11.4961 5.08787 13.9538 8.12559 13.9538C11.1677 13.9538 13.626 11.4917 13.626 8.45428C13.626 5.41245 11.1633 2.95477 8.12559 2.95477C5.08345 2.95477 2.62523 5.41687 2.62523 8.45428Z" fill="#E2E8F0" stroke="#94A3B8"/>
</svg>
