<svg width="75" height="62" viewBox="0 0 75 62" fill="none" xmlns="http://www.w3.org/2000/svg">
<path fill-rule="evenodd" clip-rule="evenodd" d="M51.625 58.125C56.5315 58.125 61.2371 56.492 64.7065 53.5852C68.1759 50.6783 70.125 46.7359 70.125 42.625C70.125 38.5141 68.1759 34.5717 64.7065 31.6648C61.2371 28.758 56.5315 27.125 51.625 27.125C46.7185 27.125 42.0129 28.758 38.5435 31.6648C35.0741 34.5717 33.125 38.5141 33.125 42.625C33.125 46.7359 35.0741 50.6783 38.5435 53.5852C42.0129 56.492 46.7185 58.125 51.625 58.125ZM74.75 42.625C74.75 47.7636 72.3136 52.6917 67.9768 56.3252C63.6401 59.9587 57.7581 62 51.625 62C45.4919 62 39.6099 59.9587 35.2732 56.3252C30.9364 52.6917 28.5 47.7636 28.5 42.625C28.5 37.4864 30.9364 32.5583 35.2732 28.9248C39.6099 25.2913 45.4919 23.25 51.625 23.25C57.7581 23.25 63.6401 25.2913 67.9768 28.9248C72.3136 32.5583 74.75 37.4864 74.75 42.625Z" fill="#0369A1"/>
<path d="M44.4009 46.283C44.6182 48.5925 46.7966 50.3905 50.7047 50.6075V52.3125H52.4391V50.5959C56.486 50.3595 58.8494 48.546 58.8494 45.9188C58.8494 43.524 57.0456 42.2917 53.8081 41.6562L52.4391 41.385V36.735C54.1781 36.9016 55.2789 37.696 55.5425 38.7965H58.5857C58.3684 36.5684 56.0882 34.8285 52.4391 34.6386V32.9375H50.7047V34.6812C47.2499 34.9641 44.9004 36.704 44.9004 39.1685C44.9004 41.3462 46.6486 42.7335 49.5577 43.2992L50.7047 43.5356V48.4646C48.9287 48.2399 47.7494 47.4184 47.4857 46.283H44.4009ZM50.6909 41.0363C48.9842 40.7069 48.0592 40.0287 48.0592 39.0135C48.0592 37.8742 49.0582 37.0217 50.7047 36.7737V41.0363H50.6909ZM52.6889 43.927C54.7655 44.33 55.7182 44.981 55.7182 46.1319C55.7182 47.4455 54.5296 48.3445 52.4391 48.5111V43.8805L52.6889 43.927Z" fill="#0369A1"/>
<path d="M5.375 0C4.14837 0 2.97199 0.408258 2.10463 1.13496C1.23728 1.86166 0.75 2.84729 0.75 3.875L0.75 34.875C0.75 35.9027 1.23728 36.8883 2.10463 37.615C2.97199 38.3417 4.14837 38.75 5.375 38.75H24.2589C24.5302 37.4144 24.928 36.1227 25.4521 34.875H14.625C14.625 32.8196 13.6504 30.8483 11.9157 29.3949C10.181 27.9415 7.82825 27.125 5.375 27.125V11.625C7.82825 11.625 10.181 10.8085 11.9157 9.35508C13.6504 7.90167 14.625 5.93043 14.625 3.875H60.875C60.875 5.93043 61.8496 7.90167 63.5843 9.35508C65.319 10.8085 67.6717 11.625 70.125 11.625V25.296C71.8825 26.6135 73.4411 28.117 74.75 29.7677V3.875C74.75 2.84729 74.2627 1.86166 73.3954 1.13496C72.528 0.408258 71.3516 0 70.125 0L5.375 0Z" fill="#0369A1"/>
<path d="M46.9908 19.6965L47 19.3749C46.9991 18.0403 46.5868 16.7286 45.8031 15.5667C45.0194 14.4048 43.8909 13.4321 42.5269 12.7429C41.1628 12.0537 39.6095 11.6713 38.0173 11.6328C36.425 11.5942 34.8479 11.9008 33.4386 12.5228C32.0293 13.1449 30.8357 14.0613 29.9732 15.1833C29.1107 16.3053 28.6087 17.595 28.5158 18.9273C28.4228 20.2596 28.7421 21.5894 29.4426 22.788C30.1432 23.9866 31.2013 25.0133 32.5145 25.7687C36.5123 22.5841 41.5523 20.4701 46.9908 19.6965Z" fill="#0369A1"/>
</svg>
