<svg width="75" height="62" viewBox="0 0 75 62" fill="none" xmlns="http://www.w3.org/2000/svg">
<path fill-rule="evenodd" clip-rule="evenodd" d="M23.1111 14.5865C25.2918 14.5865 27.3832 13.8181 28.9251 12.4504C30.4671 11.0826 31.3334 9.22755 31.3334 7.29326C31.3334 5.35896 30.4671 3.5039 28.9251 2.13615C27.3832 0.768394 25.2918 0 23.1111 0C20.9305 0 18.8391 0.768394 17.2971 2.13615C15.7552 3.5039 14.8889 5.35896 14.8889 7.29326C14.8889 9.22755 15.7552 11.0826 17.2971 12.4504C18.8391 13.8181 20.9305 14.5865 23.1111 14.5865ZM23.1111 10.9399C24.2015 10.9399 25.2471 10.5557 26.0181 9.87181C26.7891 9.18794 27.2222 8.2604 27.2222 7.29326C27.2222 6.32611 26.7891 5.39858 26.0181 4.7147C25.2471 4.03083 24.2015 3.64663 23.1111 3.64663C22.0208 3.64663 20.9751 4.03083 20.2041 4.7147C19.4332 5.39858 19 6.32611 19 7.29326C19 8.2604 19.4332 9.18794 20.2041 9.87181C20.9751 10.5557 22.0208 10.9399 23.1111 10.9399Z" fill="#0369A1"/>
<path d="M31.3336 56.5228V49.1019L35.4447 54.3111V56.5228C35.4455 57.6982 35.0194 58.8424 34.2296 59.7862C33.4399 60.7299 32.3284 61.4229 31.0599 61.7625C29.7914 62.1021 28.4333 62.0703 27.1868 61.6717C25.9402 61.2731 24.8716 60.529 24.1392 59.5495C23.4076 60.5302 22.339 61.2756 21.0921 61.675C19.8451 62.0744 18.4862 62.1066 17.217 61.7668C15.9478 61.4271 14.8359 60.7334 14.0463 59.7887C13.2567 58.8441 12.8314 57.6988 12.8336 56.5228V35.8136C11.8101 36.3023 10.6517 36.5244 9.49205 36.4543C8.33238 36.3842 7.21864 36.0249 6.27925 35.4177C5.33986 34.8105 4.61308 33.9801 4.18269 33.0224C3.7523 32.0646 3.63584 31.0185 3.84674 30.0045C4.32774 27.6944 4.81285 25.676 5.42746 24.0204C6.02974 22.3886 6.94857 20.5543 8.66496 19.0829C10.5396 17.4802 12.6939 16.8657 14.5377 16.6159C16.0567 16.4081 17.7505 16.4099 19.1483 16.4099H19.2264L24.8997 20.0565H19.2264C17.7361 20.0565 16.3383 20.0602 15.1585 20.2206C13.8429 20.3993 12.589 20.795 11.5201 21.7085C10.5047 22.5782 9.85102 23.7597 9.33302 25.1582C8.81296 26.5639 8.36691 28.3763 7.89002 30.6646C7.79107 31.1402 7.90917 31.6312 8.21833 32.0295C8.5275 32.4279 9.0024 32.701 9.53857 32.7887C10.0747 32.8765 10.6283 32.7718 11.0774 32.4975C11.5265 32.2233 11.8343 31.802 11.9333 31.3264C12.2827 29.6453 12.5952 28.3362 12.9035 27.3097L16.9447 27.7783V56.5228C16.939 57.0012 17.1455 57.4623 17.5196 57.8069C17.8938 58.1515 18.4056 58.3518 18.9447 58.3647C19.4838 58.3776 20.007 58.2021 20.4016 57.876C20.7961 57.5498 21.0304 57.0992 21.0538 56.6213L22.1617 38.2897H26.1187L27.2225 56.6213C27.2298 56.8607 27.2902 57.0965 27.4002 57.3153C27.5103 57.534 27.6678 57.7314 27.8638 57.8961C28.0598 58.0609 28.2905 58.1898 28.5427 58.2754C28.7949 58.3611 29.0636 58.4018 29.3336 58.3954C29.6035 58.3889 29.8694 58.3353 30.116 58.2377C30.3626 58.1401 30.5851 58.0004 30.7708 57.8265C30.9565 57.6526 31.1018 57.448 31.1984 57.2243C31.295 57.0006 31.3409 56.7623 31.3336 56.5228Z" fill="#0369A1"/>
<path d="M24.8994 20.0565H27.2983L27.3127 20.0584H27.3271C29.3703 20.0948 31.2059 20.722 32.7373 21.7486L34.9018 18.607C32.6646 17.1792 29.9783 16.4106 27.2222 16.4099H19.2261L24.8994 20.0565ZM5.63889 36.4664C4.27597 36.4664 2.96887 36.9466 2.00515 37.8015C1.04142 38.6563 0.5 39.8157 0.5 41.0247V42.4888C0.5 42.9723 0.716567 43.4361 1.10206 43.7781C1.48755 44.12 2.01039 44.3121 2.55556 44.3121C3.10072 44.3121 3.62356 44.12 4.00905 43.7781C4.39454 43.4361 4.61111 42.9723 4.61111 42.4888V41.0247C4.61111 40.7829 4.71939 40.551 4.91214 40.38C5.10489 40.209 5.36631 40.113 5.63889 40.113C5.91147 40.113 6.17289 40.209 6.36564 40.38C6.55838 40.551 6.66667 40.7829 6.66667 41.0247V58.3461C6.66667 58.8297 6.88323 59.2935 7.26873 59.6354C7.65422 59.9774 8.17705 60.1695 8.72222 60.1695C9.26739 60.1695 9.79023 59.9774 10.1757 59.6354C10.5612 59.2935 10.7778 58.8297 10.7778 58.3461V41.0247C10.7778 39.8157 10.2364 38.6563 9.27263 37.8015C8.3089 36.9466 7.00181 36.4664 5.63889 36.4664ZM64.2222 41.0247C64.2222 39.8157 64.7636 38.6563 65.7274 37.8015C66.6911 36.9466 67.9982 36.4664 69.3611 36.4664C70.724 36.4664 72.0311 36.9466 72.9949 37.8015C73.9586 38.6563 74.5 39.8157 74.5 41.0247V58.3461C74.5 58.8297 74.2834 59.2935 73.8979 59.6354C73.5125 59.9774 72.9896 60.1695 72.4444 60.1695C71.8993 60.1695 71.3764 59.9774 70.9909 59.6354C70.6055 59.2935 70.3889 58.8297 70.3889 58.3461V41.0247C70.3889 40.7829 70.2806 40.551 70.0879 40.38C69.8951 40.209 69.6337 40.113 69.3611 40.113C69.0885 40.113 68.8271 40.209 68.6344 40.38C68.4416 40.551 68.3333 40.7829 68.3333 41.0247V42.4888C68.3333 42.9723 68.1168 43.4361 67.7313 43.7781C67.3458 44.12 66.8229 44.3121 66.2778 44.3121C65.7326 44.3121 65.2098 44.12 64.8243 43.7781C64.4388 43.4361 64.2222 42.9723 64.2222 42.4888V41.0247Z" fill="#0369A1"/>
<path fill-rule="evenodd" clip-rule="evenodd" d="M49.833 13.8025C54.3738 13.8025 58.0553 10.7138 58.0553 6.90124C58.0553 3.09052 54.3738 0 49.833 0C45.2923 0 41.6108 3.09052 41.6108 6.90124C41.6108 10.712 45.2903 13.8043 49.833 13.8043M49.833 10.3546C52.1024 10.3546 53.9441 8.81026 53.9441 6.90307C53.9441 4.9977 52.1024 3.45336 49.833 3.45336C47.5637 3.45336 45.7219 4.9977 45.7219 6.90307C45.7219 8.81026 47.5616 10.3546 49.833 10.3546ZM52.8732 17.254C53.7571 17.254 55.2988 17.3361 56.9165 18.0198C59.6504 19.1758 61.2126 21.0684 62.1396 22.7422L62.3103 23.0485C62.633 23.6283 62.7214 23.787 62.7686 23.9547C62.7851 24.0185 62.7974 24.0823 62.8118 24.1735C62.8406 24.3321 62.8838 24.571 62.9989 25.0232C63.3606 26.4216 63.3689 26.4581 63.5744 27.3424C63.7697 28.1866 64.1541 29.8422 65.2394 34.3768C65.9095 37.1792 63.745 39.9087 60.4068 40.4703C59.8724 40.5614 59.3379 40.5906 58.8199 40.5633L60.8467 48.4765C61.153 49.9588 60.2629 51.5761 58.3595 52.1468C56.493 52.7047 53.1116 53.4887 48.8053 53.4887C44.4968 53.4887 41.1175 52.7047 39.251 52.1468C38.4048 51.9071 37.6858 51.4025 37.2281 50.7271C36.7705 50.0518 36.6054 49.2518 36.7638 48.4765L37.8738 43.1287C37.3426 43.1547 36.8097 43.1235 36.2869 43.0357C32.9466 42.4723 30.7842 39.7446 31.4543 36.9403C32.5376 32.4076 32.922 30.7538 33.1193 29.9078C33.3249 29.0235 33.3331 28.9852 33.6928 27.5867C34.0731 26.1135 34.5829 24.3412 35.4709 22.7422C36.3959 21.0702 37.9581 19.1758 40.694 18.0198C42.3118 17.3361 43.8534 17.254 44.7373 17.254H52.8732ZM52.8732 20.7056H44.7353C44.1515 20.7056 43.3416 20.7639 42.5399 21.103C40.9099 21.7923 39.8883 22.9482 39.1955 24.199C38.5172 25.4225 38.0814 26.8684 37.7094 28.3161C37.3538 29.6909 37.3496 29.7127 37.1564 30.5442L37.1523 30.566C36.6043 32.9191 36.048 35.2705 35.4832 37.6204C35.2591 38.554 35.9806 39.4638 37.0948 39.6516C37.6086 39.7391 38.1205 39.6553 38.5439 39.4456L40.9818 28.1884L45.0271 28.8065L43.7383 34.7505L43.7876 34.7031L40.8359 48.956C42.4248 49.4155 45.2409 50.0372 48.8032 50.0372C52.3655 50.0372 55.1816 49.4173 56.7705 48.956L53.8167 34.6977L53.8599 34.7177L52.5793 28.8065L56.6246 28.1884L58.2074 36.9112C58.6185 37.099 59.1036 37.1701 59.5949 37.088C60.7069 36.9002 61.4284 35.9904 61.2044 35.0569C60.119 30.5168 59.7346 28.854 59.5353 28.0006L59.5311 27.9824C59.3379 27.1492 59.3338 27.1273 58.9803 25.7525C58.8281 25.1617 58.8158 24.9976 58.8138 24.9284C58.8138 24.9101 58.8124 24.8961 58.8096 24.8864C58.8035 24.8645 58.7911 24.8463 58.7562 24.7916C58.7069 24.7096 58.6082 24.5509 58.4109 24.1972C57.7181 22.9482 56.6965 21.7904 55.0665 21.1012C54.3758 20.8275 53.6255 20.6924 52.8691 20.7056" fill="#0369A1"/>
<path d="M39.5554 59.4036V55.2136C42.2379 55.5236 44.7087 55.7169 47.124 55.7916L45.5967 60.1366C45.1609 61.371 43.7138 62.1495 42.1968 61.9654C40.6798 61.783 39.5554 60.689 39.5554 59.4036ZM52.0326 60.1894L50.3779 55.8244C52.944 55.7887 55.5065 55.6378 58.0554 55.3722V59.4054C58.0554 60.6817 56.9454 61.7666 55.4449 61.9617C53.9443 62.1586 52.4951 61.4056 52.0326 60.1894Z" fill="#0369A1"/>
</svg>
