<svg width="78" height="67" viewBox="0 0 78 67" fill="none" xmlns="http://www.w3.org/2000/svg">
<path d="M57.5 18.2381L76 25.619V64L52.4545 55.1429M52.4545 55.1429L25.5455 64M52.4545 55.1429V34.4762M25.5455 64L2 55.1429V16.7619L18.8182 22.6667M25.5455 64V34.4762M39 47.0909C39 47.0909 18.8182 33 18.8182 19.7143C18.8182 8.64286 28.9091 2 39 2C49.0909 2 59.1818 8.64286 59.1818 19.7143C59.1818 33 39 47.0909 39 47.0909ZM42.3636 19.7143C42.3636 18.0836 40.8578 16.7619 39 16.7619C37.1422 16.7619 35.6364 18.0836 35.6364 19.7143C35.6364 21.345 37.1422 22.6667 39 22.6667C40.8578 22.6667 42.3636 21.345 42.3636 19.7143Z" stroke="#0369A1" stroke-width="3.95598"/>
</svg>
