<svg width="74" height="62" viewBox="0 0 74 62" fill="none" xmlns="http://www.w3.org/2000/svg">
<path d="M51.3889 11.625V11.7098C50.708 11.6613 50.0271 11.625 49.3333 11.625H32.8889C30.7691 11.625 28.7135 11.8793 26.7479 12.3516C26.7351 12.1094 26.7222 11.8672 26.7222 11.625C26.7222 5.20703 32.2465 0 39.0556 0C45.8646 0 51.3889 5.20703 51.3889 11.625ZM49.3333 15.5C49.783 15.5 50.2326 15.5121 50.6694 15.5363C51.209 15.5727 51.7486 15.6211 52.2882 15.6938C54.5493 13.2113 57.9153 11.625 61.6667 11.625H63.1441C64.4802 11.625 65.4566 12.8117 65.1354 14.0348L63.3625 20.7191C65.3924 22.5113 67.0497 24.691 68.1802 27.125H69.8889C72.1628 27.125 74 28.8566 74 31V42.625C74 44.7684 72.1628 46.5 69.8889 46.5H65.7778C64.6087 47.9652 63.2212 49.273 61.6667 50.375V58.125C61.6667 60.2684 59.8295 62 57.5556 62H53.4444C51.1705 62 49.3333 60.2684 49.3333 58.125V54.25H32.8889V58.125C32.8889 60.2684 31.0517 62 28.7778 62H24.6667C22.3927 62 20.5556 60.2684 20.5556 58.125V50.375C16.0719 47.2023 13.0142 42.3465 12.4361 36.8125H8.73611C3.90556 36.8125 0 33.1312 0 28.5781C0 24.025 3.90556 20.3438 8.73611 20.3438H9.25C10.9587 20.3438 12.3333 21.6395 12.3333 23.25C12.3333 24.8605 10.9587 26.1562 9.25 26.1562H8.73611C7.32292 26.1562 6.16667 27.2461 6.16667 28.5781C6.16667 29.9102 7.32292 31 8.73611 31H12.7444C14.299 23.7586 20.1573 17.9824 27.6858 16.1297C29.3431 15.718 31.0903 15.5 32.8889 15.5H49.3333ZM57.5556 31.9688C57.5556 31.198 57.2307 30.4587 56.6525 29.9137C56.0742 29.3687 55.29 29.0625 54.4722 29.0625C53.6545 29.0625 52.8702 29.3687 52.292 29.9137C51.7137 30.4587 51.3889 31.198 51.3889 31.9688C51.3889 32.7395 51.7137 33.4787 52.292 34.0238C52.8702 34.5688 53.6545 34.875 54.4722 34.875C55.29 34.875 56.0742 34.5688 56.6525 34.0238C57.2307 33.4787 57.5556 32.7395 57.5556 31.9688Z" fill="#0369A1"/>
</svg>
