<svg width="75" height="62" viewBox="0 0 75 62" fill="none" xmlns="http://www.w3.org/2000/svg">
<path fill-rule="evenodd" clip-rule="evenodd" d="M37.3304 0C27.5725 0 18.683 2.56977 13.4227 4.66933C12.9475 4.85879 12.5039 5.04366 12.092 5.22394C11.2754 5.57874 10.5798 5.90944 10.0268 6.20052L16.0107 13.2243L18.8277 14.1182C29.8365 18.5464 44.5997 18.5464 55.6106 14.1182L58.8078 12.7955L64.4656 6.20052C63.2923 5.59271 62.0738 5.04226 60.8169 4.55221C55.5826 2.47504 46.9048 0 37.3326 0M23.4161 7.95044C21.2976 7.63257 19.2049 7.21386 17.1492 6.69656C22.0768 4.9518 29.4195 3.10026 37.3326 3.10026C42.8132 3.10026 47.9957 3.989 52.2817 5.11543C47.259 5.67864 41.8994 6.63455 36.7925 7.81093C32.7744 8.73756 28.078 8.63766 23.4161 7.95044ZM57.894 16.6725L57.3626 16.8861C45.2521 21.7569 29.1884 21.7569 17.0779 16.8861L16.5746 16.6828C-1.62141 32.5992 -15.512 62 37.3304 62C90.1728 62 75.9453 32.0532 57.894 16.6725ZM35.0859 31.0026C33.94 31.0026 32.8411 31.3655 32.0308 32.0115C31.2206 32.6575 30.7654 33.5337 30.7654 34.4473C30.7654 35.3609 31.2206 36.2371 32.0308 36.8831C32.8411 37.5291 33.94 37.892 35.0859 37.892V31.0026ZM39.4065 27.5578V25.8355H35.0859V27.5578C32.7942 27.5578 30.5963 28.2837 28.9757 29.5757C27.3552 30.8678 26.4448 32.6201 26.4448 34.4473C26.4448 36.2745 27.3552 38.0269 28.9757 39.3189C30.5963 40.6109 32.7942 41.3368 35.0859 41.3368V48.2262C33.2065 48.2262 31.6057 47.2703 31.0095 45.9303C30.921 45.7111 30.7783 45.5082 30.5898 45.3337C30.4013 45.1592 30.1708 45.0167 29.912 44.9144C29.6531 44.8122 29.3712 44.7524 29.0829 44.7386C28.7946 44.7247 28.5057 44.7571 28.2333 44.8338C27.961 44.9105 27.7107 45.03 27.4973 45.1852C27.2839 45.3404 27.1117 45.5281 26.9908 45.7373C26.87 45.9465 26.803 46.1729 26.7938 46.403C26.7846 46.6332 26.8335 46.8625 26.9374 47.0774C27.533 48.421 28.6365 49.5842 30.0958 50.4069C31.5552 51.2296 33.2986 51.6712 35.0859 51.671V53.3933H39.4065V51.671C41.6982 51.671 43.8961 50.9451 45.5166 49.6531C47.1371 48.3611 48.0475 46.6087 48.0475 44.7815C48.0475 42.9543 47.1371 41.2019 45.5166 39.9099C43.8961 38.6179 41.6982 37.892 39.4065 37.892V31.0026C41.2859 31.0026 42.8866 31.9585 43.4829 33.2985C43.5713 33.5177 43.714 33.7206 43.9026 33.8951C44.0911 34.0696 44.3216 34.2121 44.5804 34.3144C44.8392 34.4166 45.1211 34.4764 45.4095 34.4903C45.6978 34.5041 45.9867 34.4717 46.259 34.395C46.5314 34.3183 46.7816 34.1988 46.9951 34.0436C47.2085 33.8884 47.3807 33.7007 47.5015 33.4915C47.6224 33.2823 47.6894 33.056 47.6985 32.8258C47.7077 32.5956 47.6589 32.3663 47.555 32.1514C46.9594 30.8079 45.8559 29.6446 44.3965 28.8219C42.9372 27.9993 41.1937 27.5576 39.4065 27.5578ZM39.4065 41.3368V48.2262C40.5523 48.2262 41.6513 47.8633 42.4615 47.2173C43.2718 46.5713 43.727 45.6951 43.727 44.7815C43.727 43.8679 43.2718 42.9917 42.4615 42.3457C41.6513 41.6997 40.5523 41.3368 39.4065 41.3368Z" fill="#0369A1"/>
</svg>
